<svg id="Layer_1" data-name="Layer 1" xmlns="http://www.w3.org/2000/svg" xmlns:xlink="http://www.w3.org/1999/xlink" viewBox="0 0 705.29 990.79"><defs><style>.cls-1{fill:url(#linear-gradient);}.cls-2{fill:url(#linear-gradient-2);}.cls-3{fill:url(#linear-gradient-3);}.cls-4{fill:url(#linear-gradient-4);}.cls-5{fill:url(#linear-gradient-5);}.cls-6{fill:url(#linear-gradient-6);}</style><linearGradient id="linear-gradient" x1="462.23" y1="736.31" x2="708.6" y2="736.31" gradientTransform="matrix(1, 0, 0, -1, 0, 1002.79)" gradientUnits="userSpaceOnUse"><stop offset="0.03" stop-color="#ffb300"/><stop offset="0.46" stop-color="#ffb701" stop-opacity="0.77"/><stop offset="0.88" stop-color="#ffc205" stop-opacity="0.56"/><stop offset="1" stop-color="#ffc707" stop-opacity="0.5"/></linearGradient><linearGradient id="linear-gradient-2" x1="266.21" y1="413.39" x2="556.05" y2="580.73" gradientTransform="matrix(1, 0, 0, -1, 0, 1002.79)" gradientUnits="userSpaceOnUse"><stop offset="0.14" stop-color="#ffb300"/><stop offset="0.53" stop-color="#ffb701" stop-opacity="0.77"/><stop offset="0.89" stop-color="#ffc205" stop-opacity="0.56"/><stop offset="1" stop-color="#ffc707" stop-opacity="0.5"/></linearGradient><linearGradient id="linear-gradient-3" x1="572.55" y1="946.74" x2="573.88" y2="946.74" xlink:href="#linear-gradient"/><linearGradient id="linear-gradient-4" x1="564.34" y1="939.03" x2="565.28" y2="939.03" xlink:href="#linear-gradient"/><linearGradient id="linear-gradient-5" x1="523.64" y1="891.77" x2="524.35" y2="891.77" xlink:href="#linear-gradient"/><linearGradient id="linear-gradient-6" x1="219.3" y1="33.18" x2="158.81" y2="415.09" gradientTransform="matrix(1, 0, 0, -1, 0, 1002.79)" gradientUnits="userSpaceOnUse"><stop offset="0" stop-color="#ffc707" stop-opacity="0.5"/><stop offset="1" stop-color="#ffb300"/></linearGradient></defs><g id="Layer_1-2" data-name="Layer 1"><path class="cls-1" d="M701.92,5.71c5.39-1.34,9,5.44,4.9,9.27C525,185.15,499.65,293.48,517,363.48c11.28,45.47,42.62,80.69,48.82,160.14.09.94.18,2.18.27,3.79-16.5-15-97.68-92.06-103.56-217.83A296.86,296.86,0,0,1,464,263.3c.4-3.74.89-7.45,1.43-11.1.09-1,.27-2,.45-3,.49-3.12,1-6.2,1.6-9.27.09-.62.22-1.29.36-1.92,1-5.08,2.14-10.08,3.34-14.93.22-1,.49-1.92.76-2.9.71-2.72,1.43-5.44,2.23-8.07a30.88,30.88,0,0,1,1-3.25c.89-3.08,1.87-6.11,2.85-9.09,2.36-7.09,5-14,7.76-20.64,1.38-3.25,2.76-6.46,4.19-9.63.94-2.1,1.92-4.15,2.94-6.2S494.93,159,496,157c4.32-8.52,8.83-16.58,13.46-24.12l4.19-6.64q5-7.75,10-14.71c.22-.36.49-.67.71-1a347.82,347.82,0,0,1,40-46.33c.31-.31.62-.58.94-.89,2.94-2.81,5.44-5,7.27-6.69.49-.45.94-.8,1.34-1.16s.62-.53.89-.8c0,0,0,0,.09,0l0,0A539.13,539.13,0,0,1,701.92,5.71Z" transform="translate(-3.31 -5.54)"/><path class="cls-2" d="M574.77,54.66c-.27.27-.58.53-.89.8s-.85.71-1.34,1.16c-1.83,1.65-4.32,3.88-7.27,6.69-.31.31-.62.58-.94.89a347.61,347.61,0,0,0-40,46.32l-.71,1q-5,7-10,14.71l-4.19,6.64c-4.64,7.53-9.14,15.6-13.46,24.12q-1.6,3.08-3.08,6.29c-1,2.05-2,4.1-2.94,6.2-1.43,3.17-2.81,6.38-4.19,9.63-2.76,6.64-5.39,13.55-7.76,20.64-1,3-2,6-2.85,9.09a30.88,30.88,0,0,0-1,3.25c-.8,2.67-1.56,5.35-2.23,8.07-.27,1-.53,1.92-.76,2.9-1.2,4.86-2.32,9.85-3.34,14.93-.13.62-.27,1.29-.36,1.92-.58,3-1.11,6.15-1.6,9.27-.18,1-.36,2-.45,3-.53,3.66-1,7.36-1.43,11.1a299.3,299.3,0,0,0-1.43,46.28c5.88,125.77,87.07,202.8,103.56,217.83,1.34,21.13,3.61,99.51-32.63,180.25C470.17,848.57,331.17,914.56,240.13,947.14c18.55-11.32,113.37-71.82,142-194.6,34.28-146.81-55.1-258.31-65.71-271.1-.76-41.95,4-88.81,22.78-144.85,33.12-98.88,88.23-162.15,107.8-183.23A494.58,494.58,0,0,1,574.77,54.66Z" transform="translate(-3.31 -5.54)"/><path class="cls-3" d="M572.54,56.62c.49-.45.94-.85,1.34-1.16C573.48,55.82,573,56.18,572.54,56.62Z" transform="translate(-3.31 -5.54)"/><path class="cls-4" d="M564.34,64.2c.31-.31.62-.58.94-.89C565,63.62,564.65,63.89,564.34,64.2Z" transform="translate(-3.31 -5.54)"/><path class="cls-5" d="M524.35,110.52c-.22.31-.49.62-.71,1C523.86,111.19,524.13,110.84,524.35,110.52Z" transform="translate(-3.31 -5.54)"/><path class="cls-6" d="M316.47,481.45c10.61,12.8,100,124.29,65.71,271.1-28.67,122.78-123.49,183.28-142,194.6-20.78,7.45-39,13.15-53.36,17.61A722.91,722.91,0,0,1,9,996.32c-6.06.31-7.94-8.11-2.36-10.43C231.59,892,301,786.52,321.47,705.29,341,627.68,318,564,316.47,481.45Z" transform="translate(-3.31 -5.54)"/></g></svg>