<svg width="32" height="32" viewBox="0 0 32 32" fill="none" xmlns="http://www.w3.org/2000/svg">
<path d="M30.0275 11H19.5275C19.1275 11 18.8275 11.2 18.6275 11.6L17.4275 14H14.6275L15.4275 12.4C15.6275 12.1 15.5275 11.7 15.4275 11.4C15.2275 11.1 14.9275 10.9 14.5275 10.9H10.3275C5.4275 10.9 1.4275 14.6 1.0275 19.3C0.827502 21.8 1.7275 24.2 3.4275 26.1C5.1275 28 7.5275 29 10.0275 29C12.5275 29 14.9275 28 16.6275 26.1C20.3275 22.1 25.0275 19.3 30.3275 17.9C30.7275 17.8 31.0275 17.4 31.0275 16.9V11.9C31.0275 11.4 30.6275 11 30.0275 11ZM10.0275 24C7.8275 24 6.0275 22.2 6.0275 20C6.0275 17.8 7.8275 16 10.0275 16C12.2275 16 14.0275 17.8 14.0275 20C14.0275 22.2 12.2275 24 10.0275 24Z" fill="white"/>
<path d="M17.0275 8C17.6275 8 18.0275 7.6 18.0275 7V4C18.0275 3.4 17.6275 3 17.0275 3C16.4275 3 16.0275 3.4 16.0275 4V7C16.0275 7.6 16.4275 8 17.0275 8Z" fill="white"/>
<path d="M13.5275 8.89998C13.7275 9.09998 14.0275 9.19998 14.2275 9.19998C14.4275 9.19998 14.7275 9.09998 14.9275 8.89998C15.3275 8.49997 15.3275 7.89998 14.9275 7.49998L12.8275 5.39998C12.4275 4.99998 11.8275 4.99998 11.4275 5.39998C11.0275 5.79998 11.0275 6.39998 11.4275 6.79998L13.5275 8.89998Z" fill="white"/>
<path d="M19.8275 9.19998C20.1275 9.19998 20.3275 9.09998 20.5275 8.89998L22.6275 6.79998C23.0275 6.39998 23.0275 5.79998 22.6275 5.39998C22.2275 4.99998 21.6275 4.99998 21.2275 5.39998L19.1275 7.49998C18.7275 7.89998 18.7275 8.49997 19.1275 8.89998C19.3275 9.09998 19.6275 9.19998 19.8275 9.19998Z" fill="white"/>
</svg>
