<svg width="16" height="16" viewBox="0 0 16 16" fill="none" xmlns="http://www.w3.org/2000/svg">
<path d="M0.659304 11.7437C0.21885 11.8371 -0.0697234 12.3077 0.0146549 12.7952C0.0889077 13.2248 0.429796 13.5236 0.811185 13.5236C0.861812 13.5236 0.914127 13.518 0.964754 13.5068L4.30613 12.7971C4.49683 12.756 4.66727 12.6421 4.78877 12.474L6.2232 10.4719L5.74395 10.2011C5.38956 10.0031 5.14316 9.64451 5.05878 9.20935L3.70536 11.0975L0.659304 11.7437Z" fill="white"/>
<path d="M12.56 3.93697C13.5423 3.93697 14.3387 3.05565 14.3387 1.96848C14.3387 0.88132 13.5423 0 12.56 0C11.5777 0 10.7813 0.88132 10.7813 1.96848C10.7813 3.05565 11.5777 3.93697 12.56 3.93697Z" fill="white"/>
<path d="M8.67861 1.47542C8.49129 1.26251 8.31749 1.17847 8.12679 1.17847C8.05759 1.17847 7.98841 1.18967 7.91414 1.20835L4.86136 2.00956C4.43946 2.11975 4.17958 2.58853 4.27915 3.05357C4.36521 3.45324 4.68585 3.72218 5.04192 3.72218C5.10269 3.72218 5.16343 3.71471 5.2242 3.6979L7.82474 3.01622C7.99349 3.22352 8.83896 4.23765 8.99253 4.41694C7.91755 5.69066 6.84257 6.96252 5.76758 8.23625C5.7507 8.25681 5.73553 8.27733 5.72033 8.29788C5.40644 8.74051 5.50265 9.43527 5.97516 9.6986L6.54723 10.0217L9.27096 11.5606L7.55977 14.6291C7.32522 15.0513 7.44335 15.6041 7.82472 15.8655C7.95804 15.957 8.10485 16 8.24998 16C8.52168 16 8.7883 15.8487 8.94189 15.5742L11.1155 11.6764C11.2353 11.4616 11.2673 11.202 11.2049 10.9611C11.1425 10.7183 10.9923 10.5166 10.7881 10.4027L8.55543 9.14578L10.9029 6.36675L12.6748 8.02894C12.8216 8.16713 13.0022 8.23438 13.1811 8.23438C13.3734 8.23438 13.5658 8.15594 13.716 8.00279L15.7495 5.90544C16.0668 5.57861 16.0853 5.02952 15.79 4.67841C15.6348 4.49538 15.4255 4.402 15.2162 4.402C15.0256 4.402 14.8332 4.47857 14.683 4.63359L13.1608 6.20053C13.1591 6.2024 9.3452 2.23181 8.67861 1.47542Z" fill="white"/>
</svg>
